<?xml version="1.0" encoding="UTF-8" standalone="no"?>
<!-- Created with Inkscape (http://www.inkscape.org/) -->

<svg
   width="1000"
   height="270.43399"
   viewBox="0 0 1000 270.43399"
   version="1.1"
   id="svg1"
   inkscape:version="1.4.2 (ebf0e940d0, 2025-05-08)"
   sodipodi:docname="github-logo.svg"
   xmlns:inkscape="http://www.inkscape.org/namespaces/inkscape"
   xmlns:sodipodi="http://sodipodi.sourceforge.net/DTD/sodipodi-0.dtd"
   xmlns="http://www.w3.org/2000/svg"
   xmlns:svg="http://www.w3.org/2000/svg">
  <sodipodi:namedview
     id="namedview1"
     pagecolor="#ffffff"
     bordercolor="#000000"
     borderopacity="0.25"
     inkscape:showpageshadow="2"
     inkscape:pageopacity="0.0"
     inkscape:pagecheckerboard="0"
     inkscape:deskcolor="#d1d1d1"
     inkscape:document-units="px"
     inkscape:zoom="0.70644641"
     inkscape:cx="396.34995"
     inkscape:cy="334.77416"
     inkscape:window-width="1920"
     inkscape:window-height="1011"
     inkscape:window-x="0"
     inkscape:window-y="0"
     inkscape:window-maximized="1"
     inkscape:current-layer="layer1" />
  <defs
     id="defs1" />
  <g
     inkscape:label="Logo"
     inkscape:groupmode="layer"
     id="layer1">
    <path
       id="path10"
       d="m 192.60433,115.7464 h -84.03205 c -2.16833,0 -3.92577,1.76021 -3.92577,3.93132 v 41.08178 c 0,2.16834 1.75744,3.9341 3.92577,3.9341 h 32.78047 v 51.04336 c 0,0 -7.36013,2.50982 -27.71083,2.50982 -24.007171,0 -57.545592,-8.77328 -57.545592,-82.52448 0,-73.762302 34.923817,-83.468452 67.709832,-83.468452 28.38272,0 40.60702,4.994668 48.38916,7.401771 2.44596,0.749617 4.70593,-1.682473 4.70593,-3.853584 l 9.37298,-39.696378 c 0,-1.013371 -0.34426,-2.237745 -1.49923,-3.067876 C 181.61551,10.786154 162.33924,0 113.64192,0 57.545587,0 -1.5504969e-6,23.86558 -1.5504969e-6,138.60138 -1.5504969e-6,253.33718 65.882993,270.43401 121.40183,270.43401 c 45.96817,0 73.85392,-19.64276 73.85392,-19.64276 1.14941,-0.63578 1.27434,-2.24052 1.27434,-2.97901 V 119.67772 c 0,-2.17111 -1.75743,-3.93132 -3.92576,-3.93132"
       style="fill:#161312;fill-opacity:1;fill-rule:nonzero;stroke:none;stroke-width:0.277635" />
    <path
       id="path11"
       d="m 625.67187,13.745752 c 0,-2.184994 -1.73245,-3.9507583 -3.90355,-3.9507583 h -47.31471 c -2.16,0 -3.91744,1.7657643 -3.91744,3.9507583 0,0.0111 0.0146,91.439378 0.0146,91.439378 H 496.79678 V 13.745752 c 0,-2.184994 -1.73799,-3.9507583 -3.90355,-3.9507583 h -47.31194 c -2.15168,0 -3.90911,1.7657643 -3.90911,3.9507583 V 261.33586 c 0,2.18501 1.75743,3.96188 3.90911,3.96188 h 47.31194 c 2.16556,0 3.90355,-1.77687 3.90355,-3.96188 V 155.43444 h 73.75397 c 0,0 -0.13056,105.8931 -0.13056,105.90142 0,2.18501 1.75464,3.96188 3.9202,3.96188 h 47.42577 c 2.16835,0 3.90079,-1.77687 3.90633,-3.96188 V 13.745752"
       style="fill:#161312;fill-opacity:1;fill-rule:nonzero;stroke:none;stroke-width:0.277635" />
    <path
       id="path12"
       d="m 281.88926,46.234702 c 0,-17.035737 -13.65692,-30.8037 -30.50941,-30.8037 -16.83585,0 -30.50663,13.767963 -30.50663,30.8037 0,17.021856 13.67078,30.825911 30.50663,30.825911 16.85249,0 30.50941,-13.804055 30.50941,-30.825911"
       style="fill:#161312;fill-opacity:1;fill-rule:nonzero;stroke:none;stroke-width:0.277635" />
    <path
       id="path13"
       d="m 278.50766,209.10979 c 0,-6.34676 0,-114.28881 0,-114.28881 0,-2.171113 -1.7519,-3.945207 -3.91467,-3.945207 h -47.16756 c -2.16279,0 -4.09791,2.232193 -4.09791,4.400531 0,0 0,137.526936 0,163.741306 0,4.81144 2.99847,6.24404 6.87703,6.24404 0,0 20.13417,0 42.49495,0 4.66428,0 5.80816,-2.2905 5.80816,-6.32177 0,-8.77608 0,-43.1585 0,-49.83009"
       style="fill:#161312;fill-opacity:1;fill-rule:nonzero;stroke:none;stroke-width:0.277635" />
    <path
       id="path14"
       d="m 805.4883,91.247806 h -46.95101 c -2.15167,0 -3.90633,1.776869 -3.90633,3.959087 V 216.60872 c 0,0 -11.93001,8.72611 -28.86025,8.72611 -16.92745,0 -21.41962,-7.68218 -21.41962,-24.25982 0,-16.59708 0,-105.868117 0,-105.868117 0,-2.182218 -1.7491,-3.959087 -3.90633,-3.959087 h -47.65342 c -2.1489,0 -3.91188,1.776869 -3.91188,3.959087 0,0 0,64.650287 0,113.886237 0,49.23873 27.44152,61.28257 65.19166,61.28257 30.97307,0 55.94364,-17.10792 55.94364,-17.10792 0,0 1.18829,9.0176 1.72689,10.08651 0.53585,1.06612 1.93791,2.14334 3.4538,2.14334 l 30.31507,-0.13597 c 2.1489,0 3.91187,-1.77688 3.91187,-3.95077 l -0.0167,-166.203934 c 0,-2.182218 -1.75187,-3.959087 -3.91743,-3.959087"
       style="fill:#161312;fill-opacity:1;fill-rule:nonzero;stroke:none;stroke-width:0.277635" />
    <path
       id="path15"
       d="m 915.29884,225.1849 c -16.28611,-0.49418 -27.33326,-7.88486 -27.33326,-7.88486 V 138.8929 c 0,0 10.89722,-6.67992 24.26816,-7.87376 16.90803,-1.51311 33.1997,3.59261 33.1997,43.92755 0,42.53105 -7.35181,50.92676 -30.1346,50.23821 z M 933.81715,85.686759 c -26.66691,0 -44.80487,11.899474 -44.80487,11.899474 V 13.745752 c 0,-2.184994 -1.74911,-3.9507583 -3.90357,-3.9507583 h -47.45075 c -2.15723,0 -3.90911,1.7657643 -3.90911,3.9507583 V 261.33586 c 0,2.18501 1.75188,3.96188 3.91467,3.96188 0.006,0 32.91095,0 32.92207,0 1.48258,0 2.60421,-0.76351 3.43435,-2.1017 0.81902,-1.33265 1.99898,-11.4164 1.99898,-11.4164 0,0 19.40119,18.38505 56.12964,18.38505 43.1224,0 67.85143,-21.86937 67.85143,-98.18592 0,-76.319329 -39.49648,-86.292011 -66.18284,-86.292011"
       style="fill:#161312;fill-opacity:1;fill-rule:nonzero;stroke:none;stroke-width:0.277635" />
    <path
       id="path16"
       d="m 414.4937,90.853564 h -35.49297 c 0,0 -0.0527,-46.878818 -0.0527,-46.887147 0,-1.776869 -0.9162,-2.662529 -2.96794,-2.662529 h -48.36416 c -1.88237,0 -2.89019,0.827357 -2.89019,2.634764 v 48.453013 c 0,0 -24.23761,5.84979 -25.87844,6.324547 -1.62973,0.47198 -2.83188,1.976768 -2.83188,3.773068 v 30.44833 c 0,2.19055 1.7491,3.95631 3.91187,3.95631 h 24.79845 c 0,0 0,31.84761 0,73.25144 0,54.40832 38.16383,59.7528 63.91454,59.7528 11.76899,0 25.84513,-3.77861 28.16894,-4.63651 1.40485,-0.5164 2.22109,-1.97399 2.22109,-3.55098 l 0.0417,-33.49675 c 0,-2.18222 -1.84629,-3.95077 -3.92299,-3.95077 -2.07118,0 -7.36014,0.84123 -12.80735,0.84123 -17.43553,0 -23.34085,-8.10419 -23.34085,-18.59882 0,-10.48353 -0.002,-69.61164 -0.002,-69.61164 h 35.49573 c 2.1628,0 3.91467,-1.76576 3.91467,-3.95631 V 94.798768 c 0,-2.184993 -1.75187,-3.945204 -3.91467,-3.945204"
       style="fill:#161312;fill-opacity:1;fill-rule:nonzero;stroke:none;stroke-width:0.277635" />
  </g>
</svg>
